<?xml version="1.0" encoding="UTF-8" standalone="no"?>
<!-- Created with Inkscape (http://www.inkscape.org/) -->

<svg
   xmlns:dc="http://purl.org/dc/elements/1.1/"
   xmlns:cc="http://creativecommons.org/ns#"
   xmlns:rdf="http://www.w3.org/1999/02/22-rdf-syntax-ns#"
   xmlns:svg="http://www.w3.org/2000/svg"
   xmlns="http://www.w3.org/2000/svg"
   xmlns:sodipodi="http://sodipodi.sourceforge.net/DTD/sodipodi-0.dtd"
   xmlns:inkscape="http://www.inkscape.org/namespaces/inkscape"
   width="256mm"
   height="256mm"
   viewBox="0 0 256 256"
   version="1.1"
   id="svg8"
   inkscape:version="0.92.2 (5c3e80d, 2017-08-06)"
   sodipodi:docname="higan.svg">
  <defs
     id="defs2" />
  <sodipodi:namedview
     id="base"
     pagecolor="#ffffff"
     bordercolor="#666666"
     borderopacity="1.0"
     inkscape:pageopacity="0.0"
     inkscape:pageshadow="2"
     inkscape:zoom="0.5"
     inkscape:cx="-264.38189"
     inkscape:cy="632.78774"
     inkscape:document-units="mm"
     inkscape:current-layer="layer1"
     showgrid="false"
     inkscape:window-width="1920"
     inkscape:window-height="1028"
     inkscape:window-x="-8"
     inkscape:window-y="-8"
     inkscape:window-maximized="1" />
  <metadata
     id="metadata5">
    <rdf:RDF>
      <cc:Work
         rdf:about="">
        <dc:format>image/svg+xml</dc:format>
        <dc:type
           rdf:resource="http://purl.org/dc/dcmitype/StillImage" />
        <dc:title />
      </cc:Work>
    </rdf:RDF>
  </metadata>
  <g
     inkscape:label="Layer 1"
     inkscape:groupmode="layer"
     id="layer1"
     transform="translate(0,-41)">
    <circle
       id="path10"
       cx="128.0"
       cy="169.0"
       r="120.0"
       style="stroke-width:0.25;fill:#ffc0c0;fill-opacity:1" />
    <g
       aria-label="ç«"
       style="font-style:normal;font-variant:normal;font-weight:normal;font-stretch:normal;font-size:254.9591217px;line-height:1.25;font-family:KaiTi;-inkscape-font-specification:KaiTi;letter-spacing:0px;word-spacing:0px;fill:#e01818;fill-opacity:1;stroke:#e01818;stroke-width:9;stroke-miterlimit:4;stroke-dasharray:none;stroke-opacity:1"
       id="text818"
       transform="translate(318.55834,64.029166)">
      <path
         style="fill:#e01818;fill-opacity:1;stroke:#e01818;stroke-width:9;stroke-miterlimit:4;stroke-dasharray:none;stroke-opacity:1"
         d="m -194.12628,101.7548 q 15.93495,23.90242 34.85769,43.8211 19.91869,19.91868 37.8455,30.87396 18.92275,9.95934 40.833295,16.93088 21.91055,5.9756 -2.987802,7.96747 -24.898353,1.99187 -37.845493,0 -11.95121,-0.99594 -27.88616,-21.91055 -14.93901,-20.91462 -46.8089,-66.72758 -5.9756,25.89428 -13.94307,41.82923 -7.96748,14.93901 -26.89022,30.87395 -18.92275,14.93901 -39.83737,17.92682 -19.91868,3.98373 -3.98373,-3.98374 16.93088,-6.97154 33.86176,-21.91055 17.92681,-14.93901 26.89022,-34.85769 8.9634,-20.91462 10.95527,-50.79264 2.9878,-29.878022 1.99187,-50.792637 0,-20.914616 -4.97967,-28.882088 -4.97967,-8.963407 2.9878,-5.9756048 8.96341,1.9918681 16.93088,5.9756048 8.96341,2.987802 5.9756,8.963406 -2.9878,4.979671 -5.9756,33.861759 -1.99187,27.886153 -1.99187,46.8089 z"
         id="path827"
         inkscape:connector-curvature="0" />
      <path
         style="fill:#e01818;fill-opacity:1;stroke:#e01818;stroke-width:9;stroke-miterlimit:4;stroke-dasharray:none;stroke-opacity:1"
         d="m -110.28062,50.929737 q 7.96747,6.971538 0,8.963407 -6.97154,0.995934 -22.90648,10.955274 -14.93901,8.963407 -28.88209,15.934945 -12.94714,5.975604 -1.99187,-3.983736 11.95121,-10.955275 21.91055,-21.910549 10.95528,-10.955275 10.95528,-17.926814 0,-7.967472 6.97153,-3.983736 6.97154,3.983736 13.94308,11.951209 z"
         id="path825"
         inkscape:connector-curvature="0" />
      <path
         style="fill:#e01818;fill-opacity:1;stroke:#e01818;stroke-width:9;stroke-miterlimit:4;stroke-dasharray:none;stroke-opacity:1"
         d="m -261.66505,69.757659 q -15.93494,-24.898352 0,-15.934945 15.93495,7.967472 20.91462,14.939011 4.97967,5.975604 0.99593,16.930876 -3.98373,10.95528 -21.91055,-15.934942 z"
         id="path820"
         inkscape:connector-curvature="0" />
    </g>
  </g>
</svg>
