<?xml version="1.0" encoding="utf-8"?>
<svg version="1.1" id="bsnes" xmlns="http://www.w3.org/2000/svg" xmlns:xlink="http://www.w3.org/1999/xlink" x="0px" y="0px" width="512px" height="512px" viewBox="0 0 512 512" enable-background="new 0 0 512 512" xml:space="preserve">
<path fill="#16a1ff" d="M232.8,266.2c51.5-2,92.8-44.5,92.8-96.5c0-53.3-43.3-96.6-96.6-96.6c-53,0-96,42.6-96.6,95.4 c1.3-0.1,2.5-0.1,3.8-0.1c53.3,0,96.6,43.2,96.6,96.6L232.8,266.2L232.8,266.2z"/>
<path fill="#ff3f3f" d="M420.8,361.6c50.2-2,90.2-43.3,90.2-94c0-52-42-94.1-94-94.1c-51.5,0-93.4,41.5-94,92.9 c1.3-0.1,2.5-0.1,3.8-0.1c51.9,0,94,42.1,94,94.1L420.8,361.6L420.8,361.6z"/>
<path fill="#ffff00" d="M189,384.8c0-29.9,47.9-54.1,106.9-54.1c59,0,107,24.2,107,54.1c0,29.9-47.9,54.1-107,54.1 C236.9,438.9,189,414.7,189,384.8z"/>
<path fill="#00cd00" d="M1,289.5c0-28.4,45.5-51.5,101.7-51.5c56.3,0,101.8,23.1,101.8,51.5c0,28.5-45.5,51.5-101.8,51.5 C46.5,341,1,318,1,289.5z"/>
</svg>
