<?xml version="1.0" encoding="UTF-8" standalone="no"?>
<!-- Created with Inkscape (http://www.inkscape.org/) -->

<svg
   xmlns:dc="http://purl.org/dc/elements/1.1/"
   xmlns:cc="http://creativecommons.org/ns#"
   xmlns:rdf="http://www.w3.org/1999/02/22-rdf-syntax-ns#"
   xmlns:svg="http://www.w3.org/2000/svg"
   xmlns="http://www.w3.org/2000/svg"
   xmlns:sodipodi="http://sodipodi.sourceforge.net/DTD/sodipodi-0.dtd"
   xmlns:inkscape="http://www.inkscape.org/namespaces/inkscape"
   width="256mm"
   height="256mm"
   viewBox="0 0 256 256"
   version="1.1"
   id="svg8"
   inkscape:version="0.92.2 (5c3e80d, 2017-08-06)"
   sodipodi:docname="icarus.svg">
  <defs
     id="defs2" />
  <sodipodi:namedview
     id="base"
     pagecolor="#ffffff"
     bordercolor="#666666"
     borderopacity="1.0"
     inkscape:pageopacity="0.0"
     inkscape:pageshadow="2"
     inkscape:zoom="0.5"
     inkscape:cx="62.34093"
     inkscape:cy="560"
     inkscape:document-units="mm"
     inkscape:current-layer="layer1"
     showgrid="false"
     inkscape:window-width="1920"
     inkscape:window-height="1028"
     inkscape:window-x="-8"
     inkscape:window-y="-8"
     inkscape:window-maximized="1" />
  <metadata
     id="metadata5">
    <rdf:RDF>
      <cc:Work
         rdf:about="">
        <dc:format>image/svg+xml</dc:format>
        <dc:type
           rdf:resource="http://purl.org/dc/dcmitype/StillImage" />
        <dc:title />
      </cc:Work>
    </rdf:RDF>
  </metadata>
  <g
     inkscape:label="Layer 1"
     inkscape:groupmode="layer"
     id="layer1"
     transform="translate(0,-41)">
    <circle
       id="path10"
       cx="128.0"
       cy="169.0"
       r="120.0"
       style="stroke-width:0.25;fill:#b8b8ff;fill-opacity:1" />
    <g
       aria-label="氷"
       style="font-style:normal;font-variant:normal;font-weight:normal;font-stretch:normal;font-size:260.07336426px;line-height:1.25;font-family:KaiTi;-inkscape-font-specification:KaiTi;letter-spacing:0px;word-spacing:0px;fill:#4050e0;fill-opacity:1;stroke:#4050e0;stroke-width:6;stroke-miterlimit:4;stroke-dasharray:none;stroke-opacity:1"
       id="text818">
      <path
         style="fill:#4050e0;fill-opacity:1;stroke:#4050e0;stroke-width:6;stroke-miterlimit:4;stroke-dasharray:none;stroke-opacity:1"
         d="m 130.80961,146.24049 q 5.07956,5.07956 14.22276,15.23868 14.22277,-13.20685 25.39779,-27.42962 12.19094,-15.23867 11.17503,-24.38187 0,-10.15912 10.15912,-4.06365 10.15911,6.09547 14.22276,12.19094 4.06364,5.07956 -2.03182,7.11138 -6.09547,1.01591 -22.35006,14.22276 -15.23867,12.19094 -32.50917,26.4137 13.20685,11.17503 23.36597,20.31823 11.17502,9.14321 24.38187,18.28641 14.22277,8.1273 27.42962,14.22276 14.22276,5.07956 21.33414,7.11139 7.11138,2.03182 -3.04773,5.07955 -9.14321,2.03183 -23.36597,3.04774 -14.22276,0 -21.33414,-2.03182 -6.09547,-3.04774 -11.17503,-8.1273 -4.06365,-5.07956 -24.38188,-27.42961 -19.30232,-23.36597 -31.49326,-39.62055 1.01591,41.65237 2.03182,64.00243 2.03183,22.35005 0,34.54099 -2.03182,12.19094 -8.12729,19.30232 -5.07956,7.11138 -8.12729,4.06365 -2.03182,-2.03183 -7.11138,-11.17503 -5.07956,-8.12729 -16.254587,-15.23867 -11.175027,-8.1273 1.015912,-5.07956 12.190935,2.03182 16.254585,2.03182 4.06365,-1.01591 6.09547,-7.11138 2.03182,-7.11138 2.03182,-46.73193 0,-40.63646 -1.01591,-77.20928 -1.01591,-37.58873 -6.09547,-45.716022 -5.07956,-9.143205 4.06365,-7.111382 10.15911,1.015912 16.25458,5.079558 7.11138,3.047735 4.06365,9.143205 -3.04774,5.079557 -4.06365,15.238673 -1.01591,10.159118 -1.01591,51.811488 z"
         id="path822" />
      <path
         style="fill:#4050e0;fill-opacity:1;stroke:#4050e0;stroke-width:6;stroke-miterlimit:4;stroke-dasharray:none;stroke-opacity:1"
         d="m 88.141325,149.28823 q 5.079558,1.01591 14.222765,7.11138 9.1432,6.09547 4.06364,10.15911 -5.07955,4.06365 -12.190935,18.28641 -6.09547,14.22276 -14.222763,25.39779 -8.127292,10.15912 -19.30232,19.30232 -11.175027,8.12729 -21.334143,12.19094 -9.143204,3.04774 -16.254585,5.07956 -6.095469,1.01591 5.079558,-6.09547 11.175027,-7.11138 21.334143,-17.2705 11.175027,-10.15911 18.286408,-21.33414 8.127293,-12.19094 11.175028,-20.31823 3.047735,-9.14321 3.047735,-14.22276 1.015911,-5.07956 -3.047735,-5.07956 -4.063646,0 -15.238674,4.06364 -10.159116,4.06365 -15.238674,6.09547 -4.063646,2.03183 -13.20685,-3.04773 -8.127293,-6.09547 2.031823,-6.09547 11.175027,-1.01591 24.381878,-5.07956 14.222762,-5.07956 17.270497,-7.11138 4.063646,-3.04773 9.143204,-2.03182 z"
         id="path820" />
      <path
         style="fill:#4050e0;fill-opacity:1;stroke:#4050e0;stroke-width:6;stroke-miterlimit:4;stroke-dasharray:none;stroke-opacity:1"
         d="m 63.759447,101.54038 q 9.143204,1.01591 18.286409,5.07956 9.143204,4.06365 11.175027,11.17503 2.031823,7.11138 -1.015912,11.17503 -3.047734,4.06364 -15.238673,-4.06365 -11.175028,-9.1432 -16.254586,-16.25459 -5.079557,-8.12729 3.047735,-7.11138 z"
         id="path815" />
    </g>
  </g>
</svg>
